<?xml version="1.0" encoding="utf-8"?>
<!-- Generator: Adobe Illustrator 16.0.0, SVG Export Plug-In . SVG Version: 6.00 Build 0)  -->
<!DOCTYPE svg PUBLIC "-//W3C//DTD SVG 1.1//EN" "http://www.w3.org/Graphics/SVG/1.1/DTD/svg11.dtd">
<svg version="1.1" xmlns="http://www.w3.org/2000/svg" xmlns:xlink="http://www.w3.org/1999/xlink" x="0px" y="0px" width="150px"
	 height="50px" viewBox="0 0 150 50" enable-background="new 0 0 150 50" xml:space="preserve">
<g id="Layer_1">
	<g>
		<linearGradient id="SVGID_1_" gradientUnits="userSpaceOnUse" x1="25.458" y1="10.1831" x2="25.458" y2="38.5835">
			<stop  offset="0" style="stop-color:#77FF84"/>
			<stop  offset="1" style="stop-color:#15FBFF"/>
		</linearGradient>
		<path fill="url(#SVGID_1_)" stroke="#000000" stroke-width="0.75" stroke-miterlimit="10" d="M29.121,17.343
			c0-0.56-0.047-1-0.14-1.32c-0.094-0.32-0.207-0.48-0.34-0.48c-0.4,0-0.86,0.334-1.38,1c-0.52,0.667-0.96,1.46-1.32,2.38
			s-0.54,1.74-0.54,2.46c0,0.907,0.446,1.82,1.34,2.74c0.893,0.92,2.207,2.047,3.94,3.38c1.307,0.96,2.28,1.754,2.92,2.38
			c0.64,0.627,0.973,1.194,1,1.7c0.026,1.12-0.56,2.22-1.76,3.3c-1.2,1.08-2.7,1.967-4.5,2.66c-1.8,0.693-3.474,1.04-5.02,1.04
			c-1.2,0-2.44-0.3-3.72-0.9c-1.28-0.6-2.347-1.306-3.2-2.119s-1.293-1.526-1.32-2.141c-0.053-1.173,0.333-2.126,1.16-2.859
			c0.827-0.733,1.933-1.101,3.32-1.101c0.693,0,1.4,0.094,2.12,0.28c0.32,1.76,0.6,3.026,0.84,3.8c1.573-0.4,3.28-1.093,5.12-2.08
			c-5.947-4.506-8.92-8.026-8.92-10.56c0-1.226,0.453-2.7,1.36-4.42c0.906-1.72,2.106-3.2,3.6-4.44c1.493-1.24,3.066-1.86,4.72-1.86
			c1.226,0,2.413,0.414,3.56,1.24c1.146,0.827,2.08,1.84,2.8,3.04c0.72,1.2,1.08,2.32,1.08,3.36c0,1.014-0.407,1.82-1.22,2.42
			c-0.814,0.6-1.82,0.9-3.02,0.9c-0.934,0-1.867-0.2-2.8-0.6C29.014,19.21,29.121,18.143,29.121,17.343z"/>
		<linearGradient id="SVGID_2_" gradientUnits="userSpaceOnUse" x1="42.8999" y1="7.623" x2="42.8999" y2="38.5835">
			<stop  offset="0" style="stop-color:#77FF84"/>
			<stop  offset="1" style="stop-color:#15FBFF"/>
		</linearGradient>
		<path fill="url(#SVGID_2_)" stroke="#000000" stroke-width="0.75" stroke-miterlimit="10" d="M39.42,37.883
			c-0.947-0.466-1.754-1.013-2.42-1.64c-0.667-0.626-1-1.166-1-1.62c0-0.453,0.187-1.573,0.56-3.36
			c0.373-1.786,0.613-2.933,0.72-3.439c0.8-3.68,1.333-6.227,1.6-7.64l0.4-2.24c0.56-3.093,1.073-5.586,1.54-7.48
			c0.466-1.893,0.94-2.84,1.42-2.84c0.56,0,1.3,0.24,2.22,0.72c0.92,0.48,1.727,1.04,2.42,1.68c0.693,0.64,1.04,1.2,1.04,1.68
			c0,0.64-0.114,1.26-0.34,1.86s-0.567,1.38-1.02,2.34c-0.427,0.827-0.72,1.467-0.88,1.92c-0.507,1.574-1.047,3.76-1.62,6.56
			c-0.574,2.8-1.047,5.507-1.42,8.12c0.853-0.426,1.52-0.793,2-1.1s1.04-0.727,1.68-1.261c1.173,0.4,2.046,0.954,2.62,1.66
			c0.573,0.707,0.86,1.514,0.86,2.42c0,0.641-0.454,1.301-1.36,1.98c-0.907,0.68-1.987,1.247-3.24,1.7
			c-1.254,0.453-2.32,0.68-3.2,0.68C41.226,38.583,40.366,38.35,39.42,37.883z"/>
		<linearGradient id="SVGID_3_" gradientUnits="userSpaceOnUse" x1="64.7192" y1="16.0229" x2="64.7192" y2="38.5835">
			<stop  offset="0" style="stop-color:#77FF84"/>
			<stop  offset="1" style="stop-color:#15FBFF"/>
		</linearGradient>
		<path fill="url(#SVGID_3_)" stroke="#000000" stroke-width="0.75" stroke-miterlimit="10" d="M74.319,30.143
			c1.174,0.4,2.047,0.954,2.621,1.66c0.572,0.707,0.859,1.514,0.859,2.42c0,0.641-0.453,1.301-1.359,1.98
			c-0.908,0.68-1.988,1.247-3.24,1.7c-1.254,0.453-2.321,0.68-3.201,0.68c-0.614,0-1.313-0.227-2.1-0.68s-1.467-0.986-2.04-1.601
			C65.286,35.689,65,35.21,65,34.863c0-0.267,0.113-0.627,0.34-1.08s0.473-0.92,0.74-1.4c0.266-0.479,0.44-0.8,0.52-0.96l-1-0.56
			c-1.414,2.319-2.767,4.187-4.06,5.6c-1.294,1.414-2.567,2.12-3.82,2.12c-0.854,0-1.754-0.373-2.7-1.12
			c-0.947-0.746-1.747-1.653-2.4-2.72c-0.654-1.066-0.98-2.014-0.98-2.84c0-2.373,0.493-4.801,1.48-7.28
			c0.986-2.48,2.366-4.533,4.14-6.16c1.773-1.626,3.78-2.44,6.02-2.44c0.8,0,1.613,0.36,2.44,1.08c0.826,0.72,1.36,1.454,1.6,2.2
			c0.133-0.586,0.326-1.1,0.58-1.54s0.526-0.66,0.82-0.66c0.693,0,1.46,0.247,2.3,0.74c0.84,0.494,1.554,1.067,2.14,1.72
			c0.586,0.654,0.881,1.167,0.881,1.54c-0.027,0.507-0.234,1.347-0.621,2.52c-0.387,1.174-1.006,2.96-1.859,5.36
			c-0.507,1.307-0.96,2.547-1.36,3.72C71.825,31.903,73.2,31.05,74.319,30.143z M63.56,28.083c1.6-1.96,2.693-4.126,3.28-6.5
			c-0.72-0.32-1.4-0.48-2.04-0.48c-1.254,0-2.374,0.56-3.36,1.68c-0.987,1.12-1.773,2.587-2.36,4.399
			c-0.587,1.814-0.974,3.761-1.16,5.841C60.08,31.689,61.959,30.043,63.56,28.083z"/>
		<linearGradient id="SVGID_4_" gradientUnits="userSpaceOnUse" x1="89.1582" y1="16.0229" x2="89.1582" y2="38.5835">
			<stop  offset="0" style="stop-color:#77FF84"/>
			<stop  offset="1" style="stop-color:#15FBFF"/>
		</linearGradient>
		<path fill="url(#SVGID_4_)" stroke="#000000" stroke-width="0.75" stroke-miterlimit="10" d="M93.119,29.423
			c1.307,0.24,2.354,0.734,3.14,1.48s1.181,1.693,1.181,2.84c0,0.827-0.474,1.613-1.42,2.359c-0.947,0.747-2.127,1.348-3.54,1.801
			c-1.414,0.453-2.774,0.68-4.08,0.68c-1.28,0-2.614-0.42-4-1.26c-1.387-0.84-2.534-1.873-3.44-3.101
			c-0.907-1.226-1.36-2.386-1.36-3.479c0-2.106,0.486-4.313,1.461-6.62c0.973-2.306,2.326-4.233,4.06-5.78
			c1.733-1.546,3.68-2.32,5.84-2.32c1.333,0,2.601,0.24,3.8,0.72c1.2,0.48,2.16,1.12,2.88,1.92c0.721,0.8,1.08,1.627,1.08,2.48
			c0,0.827-0.359,1.567-1.08,2.22c-0.72,0.654-1.666,0.98-2.84,0.98c-0.373,0-0.76-0.04-1.16-0.12
			c-0.666-1.626-1.399-2.773-2.199-3.44c-1.761,1.146-3.094,2.747-4,4.8c-0.907,2.054-1.36,4.146-1.36,6.28
			c0,0.319,0.026,0.8,0.08,1.439C88.665,33.196,90.985,31.903,93.119,29.423z"/>
		<linearGradient id="SVGID_5_" gradientUnits="userSpaceOnUse" x1="110.6387" y1="7.583" x2="110.6387" y2="38.5835">
			<stop  offset="0" style="stop-color:#77FF84"/>
			<stop  offset="1" style="stop-color:#15FBFF"/>
		</linearGradient>
		<path fill="url(#SVGID_5_)" stroke="#000000" stroke-width="0.75" stroke-miterlimit="10" d="M112.759,19.043
			c1.146-1.293,2.16-1.94,3.04-1.94c0.613,0,1.246,0.294,1.9,0.88c0.653,0.587,1.193,1.287,1.62,2.1c0.426,0.814,0.64,1.5,0.64,2.06
			c0,1.52-0.594,3.034-1.78,4.54c-1.187,1.507-2.687,2.86-4.5,4.061c0.533,0.507,0.986,0.894,1.36,1.16
			c0.373,0.267,0.773,0.479,1.2,0.64c0.826-0.267,1.866-0.746,3.12-1.44c0.8,0.48,1.413,1.04,1.84,1.681
			c0.426,0.64,0.64,1.28,0.64,1.92c0,1.12-0.507,2.047-1.52,2.78c-1.014,0.733-2.28,1.1-3.8,1.1c-1.254,0-2.407-0.366-3.46-1.1
			c-1.054-0.733-1.921-1.721-2.601-2.96c-0.68-1.24-1.14-2.58-1.38-4.021l0.76-1.24c1.467-0.586,2.58-1.266,3.34-2.04
			c0.761-0.772,1.141-1.466,1.141-2.079c0-0.267-0.074-0.474-0.22-0.621c-0.147-0.146-0.341-0.22-0.58-0.22
			c-0.587,0-1.308,0.394-2.16,1.18c-0.854,0.786-2.04,2.007-3.561,3.659c-0.026,0.027-0.333,0.374-0.92,1.04
			c-0.08,2.08-0.279,4-0.6,5.761c-0.32,1.76-0.76,2.64-1.32,2.64c-0.667,0-1.439-0.227-2.32-0.68c-0.88-0.453-1.633-0.993-2.26-1.62
			c-0.627-0.626-0.939-1.166-0.939-1.62c0-0.32,0.105-0.873,0.319-1.66c0.214-0.786,0.467-1.66,0.761-2.62
			c1.04-3.413,1.853-6.466,2.439-9.16c0.32-1.493,0.601-3.04,0.84-4.64c0.373-2.133,0.693-3.773,0.96-4.92
			c0.267-1.146,0.606-2.113,1.021-2.9c0.413-0.787,0.926-1.18,1.54-1.18c0.453,0,1.126,0.274,2.02,0.82
			c0.894,0.547,1.687,1.174,2.38,1.88s1.04,1.287,1.04,1.74c0,0.4-0.14,0.847-0.42,1.34c-0.279,0.494-0.739,1.194-1.38,2.1
			c-0.134,0.187-0.38,0.56-0.74,1.12c-0.359,0.56-0.619,1.027-0.779,1.4c-0.32,0.774-0.674,1.76-1.061,2.96
			c-0.387,1.2-0.714,2.374-0.979,3.52l0.72,0.4C110.065,22.277,111.612,20.337,112.759,19.043z"/>
		<linearGradient id="SVGID_6_" gradientUnits="userSpaceOnUse" x1="133.5381" y1="16.0229" x2="133.5381" y2="38.5835">
			<stop  offset="0" style="stop-color:#77FF84"/>
			<stop  offset="1" style="stop-color:#15FBFF"/>
		</linearGradient>
		<path fill="url(#SVGID_6_)" stroke="#000000" stroke-width="0.75" stroke-miterlimit="10" d="M127.958,37.883
			c-0.854-0.466-1.587-1.013-2.2-1.64c-0.613-0.626-0.92-1.153-0.92-1.58c0-0.506,0.106-1.166,0.32-1.98
			c0.213-0.812,0.533-1.873,0.96-3.18c0.427-1.36,0.746-2.446,0.96-3.26c0.213-0.813,0.32-1.473,0.32-1.98
			c0-0.213-0.12-0.44-0.36-0.68s-0.613-0.56-1.12-0.96c-0.587-0.48-1.014-0.853-1.279-1.12c-0.268-0.266-0.4-0.533-0.4-0.8
			c0-0.56,0.267-1.213,0.8-1.96s1.16-1.386,1.88-1.92c0.721-0.533,1.333-0.8,1.84-0.8c0.561,0,1.2,0.254,1.921,0.76
			c0.72,0.507,1.346,1.087,1.88,1.74c0.533,0.654,0.8,1.154,0.8,1.5c0,1.014-0.2,2.347-0.601,4l0.48,0.24
			c0.613-0.986,1.286-2.167,2.02-3.54c0.733-1.373,1.181-2.22,1.341-2.54l0.76-1.44c1.84-0.053,3.213,0.28,4.12,1
			c0.906,0.72,1.359,1.68,1.359,2.88c0,1.174-0.387,2.347-1.159,3.52c-1.921,0.64-3.555,1.274-4.9,1.9
			c-1.347,0.627-2.7,1.367-4.061,2.22c-0.079,2.96-0.313,5.42-0.699,7.38c-0.387,1.96-0.954,2.94-1.7,2.94
			C129.599,38.583,128.812,38.35,127.958,37.883z"/>
	</g>
</g>
<g id="Layer_2">
</g>
</svg>
