<svg version="1.1"
      xmlns="http://www.w3.org/2000/svg"
      xmlns:xlink="http://www.w3.org/1999/xlink"  id="snapshot-04525" width="250" height="250" viewBox="0 0 250 250"><desc>This image was made on Patterninja.com</desc><defs>
<!-- image 11705 -->
<g id="transformed-11705" data-image="11705" transform="translate(-125, -41.5) rotate(0, 125, 41.5)"><g><svg version="1.1" width="250px" height="83px" viewBox="0 0 250 83"><g id="original-11705"><svg xmlns="http://www.w3.org/2000/svg" id="r10G9Iljz" viewBox="0 0 150 50" xmlns:xlink="http://www.w3.org/1999/xlink" version="1.1" preserveAspectRatio="xMidYMid meet">
  <g id="BJeAf9UgjG">
    <g id="HkMAMq8eif">
      <g id="r1mAf5Lgjf">
        <g id="BJ4CGcLxiM_HJsV58xiM" data-animator-group="true" data-animator-type="2">
          <g id="BJ4CGcLxiM">
            <path id="H1r0M9LeiG" stroke-miterlimit="10" d="M29.121 17.343c0-.56-.047-1-.14-1.32-.094-.32-.207-.48-.34-.48-.4 0-.86.334-1.38 1-.52.667-.96 1.46-1.32 2.38s-.54 1.74-.54 2.46c0 .907.446 1.82 1.34 2.74.893.92 2.207 2.047 3.94 3.38 1.307.96 2.28 1.754 2.92 2.38.64.627.973 1.194 1 1.7.026 1.12-.56 2.22-1.76 3.3-1.2 1.08-2.7 1.967-4.5 2.66-1.8.693-3.474 1.04-5.02 1.04-1.2 0-2.44-.3-3.72-.899-1.28-.601-2.347-1.307-3.2-2.119-.853-.813-1.293-1.526-1.32-2.142-.053-1.173.333-2.126 1.16-2.858.827-.733 1.933-1.102 3.32-1.102.693 0 1.4.094 2.12.28.32 1.76.6 3.026.84 3.8 1.573-.4 3.28-1.093 5.12-2.08-5.947-4.506-8.92-8.026-8.92-10.56 0-1.226.453-2.7 1.36-4.42.906-1.72 2.106-3.2 3.6-4.44 1.493-1.24 3.066-1.86 4.72-1.86 1.226 0 2.413.414 3.56 1.24 1.146.827 2.08 1.84 2.8 3.04.72 1.2 1.08 2.32 1.08 3.36 0 1.014-.407 1.82-1.22 2.42-.814.6-1.82.9-3.02.9-.934 0-1.867-.2-2.8-.6.213-1.333.32-2.4.32-3.2z" fill="rgba(1, 1, 1, 1)" stroke="none"/>
            <path id="rk8AMq8lsM" stroke-miterlimit="10" d="M39.42 37.883c-.947-.466-1.754-1.013-2.42-1.64-.667-.626-1-1.166-1-1.62 0-.453.187-1.573.56-3.359.373-1.787.613-2.934.72-3.439.8-3.68 1.333-6.227 1.6-7.64l.4-2.24c.56-3.093 1.073-5.586 1.54-7.48.466-1.893.94-2.84 1.42-2.84.56 0 1.3.24 2.22.72.92.48 1.727 1.04 2.42 1.68.693.64 1.04 1.2 1.04 1.68 0 .64-.114 1.26-.34 1.86s-.567 1.38-1.02 2.34c-.427.827-.72 1.467-.88 1.92-.507 1.574-1.047 3.76-1.62 6.56-.574 2.8-1.047 5.507-1.42 8.12.853-.426 1.52-.793 2-1.1s1.04-.728 1.68-1.262c1.173.4 2.046.955 2.62 1.66.573.707.86 1.514.86 2.42 0 .642-.454 1.301-1.36 1.98-.907.68-1.987 1.247-3.24 1.699-1.254.453-2.32.681-3.2.681-.774 0-1.634-.233-2.58-.7z" fill="rgba(0, 0, 0, 1)" stroke="none"/>
            <path id="r1PAG5Uxof" stroke-miterlimit="10" d="M74.319 30.143c1.174.4 2.047.955 2.621 1.66.572.707.859 1.514.859 2.42 0 .642-.453 1.301-1.359 1.98-.907.68-1.987 1.247-3.239 1.699-1.254.453-2.321.681-3.201.681-.614 0-1.313-.228-2.1-.681a8.63 8.63 0 0 1-2.04-1.601c-.574-.612-.86-1.091-.86-1.438 0-.268.113-.627.34-1.08s.473-.92.74-1.4c.266-.479.44-.8.52-.96l-1-.56c-1.414 2.318-2.767 4.187-4.06 5.6-1.294 1.414-2.567 2.12-3.82 2.12-.854 0-1.754-.373-2.7-1.12a10.198 10.198 0 0 1-2.4-2.72c-.654-1.066-.98-2.015-.98-2.841 0-2.373.493-4.801 1.48-7.279.986-2.48 2.366-4.533 4.14-6.16 1.773-1.626 3.78-2.44 6.02-2.44.8 0 1.613.36 2.44 1.08.826.72 1.36 1.454 1.6 2.2.133-.586.326-1.1.58-1.54s.526-.66.82-.66c.693 0 1.46.247 2.3.74a8.924 8.924 0 0 1 2.14 1.72c.586.654.881 1.167.881 1.54-.027.507-.234 1.347-.621 2.52a268.21 268.21 0 0 1-1.859 5.359 95.92 95.92 0 0 0-1.36 3.721c1.624-.801 2.999-1.653 4.118-2.56zm-10.759-2.06c1.6-1.96 2.693-4.126 3.28-6.5-.72-.32-1.4-.48-2.04-.48-1.254 0-2.374.56-3.36 1.68-.987 1.12-1.773 2.587-2.36 4.398-.587 1.814-.974 3.762-1.16 5.842a22.485 22.485 0 0 0 5.64-4.94z" fill="rgba(0, 0, 0, 1)" stroke="none"/>
            <path id="rkuAzcUxsf" stroke-miterlimit="10" d="M93.119 29.423c1.307.24 2.354.734 3.14 1.479.786.746 1.181 1.693 1.181 2.841 0 .827-.474 1.612-1.42 2.358-.946.748-2.127 1.349-3.539 1.801-1.414.453-2.774.681-4.08.681-1.28 0-2.614-.42-4-1.26-1.387-.841-2.534-1.873-3.44-3.101-.907-1.227-1.36-2.387-1.36-3.479 0-2.106.486-4.313 1.461-6.62.974-2.306 2.326-4.233 4.061-5.78 1.732-1.546 3.68-2.32 5.84-2.32 1.333 0 2.602.24 3.801.72s2.159 1.12 2.879 1.92c.721.8 1.08 1.627 1.08 2.48 0 .827-.359 1.567-1.08 2.22-.72.654-1.666.98-2.84.98-.373 0-.76-.04-1.16-.12-.666-1.626-1.398-2.773-2.199-3.44-1.76 1.146-3.094 2.747-4 4.8-.906 2.054-1.359 4.146-1.359 6.28 0 .318.025.8.08 1.438 2.5-.106 4.819-1.399 6.954-3.878z" fill="rgba(0, 0, 0, 1)" stroke="none"/>
            <path id="BktAzqLxoz" stroke-miterlimit="10" d="M112.759 19.043c1.146-1.293 2.16-1.94 3.04-1.94.613 0 1.246.294 1.9.88a7.453 7.453 0 0 1 1.619 2.1c.427.814.641 1.5.641 2.06 0 1.52-.594 3.034-1.779 4.541-1.188 1.506-2.688 2.859-4.5 4.061.532.507.985.895 1.359 1.16.373.267.773.479 1.2.64.825-.267 1.866-.746 3.12-1.44.8.48 1.412 1.041 1.84 1.682.426.64.64 1.279.64 1.92 0 1.12-.507 2.047-1.521 2.779-1.014.733-2.279 1.101-3.799 1.101a5.918 5.918 0 0 1-3.461-1.101c-1.054-.732-1.92-1.721-2.601-2.959a12.579 12.579 0 0 1-1.38-4.021l.76-1.24c1.467-.586 2.58-1.266 3.34-2.039.762-.772 1.141-1.467 1.141-2.08 0-.267-.073-.474-.219-.621a.79.79 0 0 0-.58-.22c-.588 0-1.309.394-2.16 1.18-.854.786-2.041 2.007-3.562 3.659-.026.027-.333.375-.92 1.041-.08 2.08-.278 4-.601 5.76-.319 1.761-.76 2.641-1.319 2.641-.667 0-1.438-.227-2.319-.68s-1.634-.993-2.261-1.62c-.627-.626-.938-1.166-.938-1.62 0-.32.104-.873.318-1.66.215-.786.467-1.66.762-2.62 1.039-3.413 1.853-6.466 2.438-9.16.319-1.493.601-3.04.84-4.64.373-2.133.693-3.773.96-4.92.268-1.146.606-2.113 1.021-2.9.412-.787.926-1.18 1.539-1.18.453 0 1.127.274 2.021.82.894.547 1.687 1.174 2.38 1.88s1.04 1.287 1.04 1.74c0 .4-.14.847-.42 1.34-.278.494-.739 1.194-1.38 2.1-.134.187-.38.56-.74 1.12-.359.56-.619 1.027-.779 1.4-.319.774-.674 1.76-1.061 2.96a43.177 43.177 0 0 0-.979 3.52l.72.4c1.945-2.59 3.492-4.53 4.64-5.824z" fill="rgba(0, 0, 0, 1)" stroke="none"/>
            <path id="rk5RG98giz" stroke-miterlimit="10" d="M127.958 37.883a9.234 9.234 0 0 1-2.2-1.64c-.613-.626-.92-1.153-.92-1.58 0-.506.105-1.166.32-1.979.213-.812.533-1.873.96-3.181a77.07 77.07 0 0 0 .96-3.26c.213-.813.32-1.473.32-1.98 0-.213-.121-.44-.36-.68-.24-.24-.613-.56-1.12-.96-.587-.48-1.014-.853-1.279-1.12-.268-.266-.4-.533-.4-.8 0-.56.268-1.213.801-1.96s1.16-1.386 1.88-1.92c.722-.533 1.333-.8 1.84-.8.562 0 1.2.254 1.921.76a9.416 9.416 0 0 1 1.881 1.74c.532.654.799 1.154.799 1.5 0 1.014-.199 2.347-.601 4l.48.24c.612-.986 1.286-2.167 2.02-3.54s1.181-2.22 1.341-2.54l.76-1.44c1.841-.053 3.214.28 4.121 1 .906.72 1.358 1.68 1.358 2.88 0 1.174-.387 2.347-1.159 3.52-1.921.64-3.555 1.274-4.9 1.9a37.317 37.317 0 0 0-4.061 2.221c-.078 2.959-.312 5.42-.699 7.379-.387 1.961-.953 2.94-1.699 2.94-.722 0-1.51-.233-2.364-.7z" fill="rgba(0, 0, 0, 1)" stroke="none"/>
          </g>
        </g>
      </g>
    </g>
  </g>
</svg>
</g></svg></g></g>
<!-- /image 11705 -->
</defs><rect x="0" y="0" width="250" height="250" fill="rgba(209, 209, 209, 1)"></rect><use xlink:href="#transformed-11705" transform="translate(-250, -250)"></use><use xlink:href="#transformed-11705" transform="translate(0, -250)"></use><use xlink:href="#transformed-11705" transform="translate(250, -250)"></use><use xlink:href="#transformed-11705" transform="translate(-250, 0)"></use><use xlink:href="#transformed-11705" transform="translate(0, 0)"></use><use xlink:href="#transformed-11705" transform="translate(250, 0)"></use><use xlink:href="#transformed-11705" transform="translate(-250, 250)"></use><use xlink:href="#transformed-11705" transform="translate(0, 250)"></use><use xlink:href="#transformed-11705" transform="translate(250, 250)"></use></svg>